PathFileType	4	(X/Y/Z)	C:/Users/opensim2020/Desktop/walking_exp_matlab/subject03_walking15_straight_04.trc																																																																																																																																											
DataRate	CameraRate	NumFrames	NumMarkers	Units	OrigDataRate	OrigDataStartFrame	OrigNumFrames																																																																																																																																							
100	100	5	47	mm	100	2230	182																																																																																																																																							
Frame#	Time	LFHD			RFHD			LBHD			RBHD			C7			T10			CLAV			STRN			RBAK			LSHO			LUPA			LELB			LFRM			LWRA			LWRB			LFIN			RSHO			RUPA			RELB			RFRM			RWRA			RWRB			RFIN			LASI			RASI			LPSI			RPSI			LTHI			LKNE			LTIB			LANK			LHEE			LTOE			RTHI			RKNE			RTIB			RANK			RHEE			RTOE			*39			*40			*41			*42			*43			*44			*45			*46		
		X1	Y1	Z1	X2	Y2	Z2	X3	Y3	Z3	X4	Y4	Z4	X5	Y5	Z5	X6	Y6	Z6	X7	Y7	Z7	X8	Y8	Z8	X9	Y9	Z9	X10	Y10	Z10	X11	Y11	Z11	X12	Y12	Z12	X13	Y13	Z13	X14	Y14	Z14	X15	Y15	Z15	X16	Y16	Z16	X17	Y17	Z17	X18	Y18	Z18	X19	Y19	Z19	X20	Y20	Z20	X21	Y21	Z21	X22	Y22	Z22	X23	Y23	Z23	X24	Y24	Z24	X25	Y25	Z25	X26	Y26	Z26	X27	Y27	Z27	X28	Y28	Z28	X29	Y29	Z29	X30	Y30	Z30	X31	Y31	Z31	X32	Y32	Z32	X33	Y33	Z33	X34	Y34	Z34	X35	Y35	Z35	X36	Y36	Z36	X37	Y37	Z37	X38	Y38	Z38	X39	Y39	Z39	X40	Y40	Z40	X41	Y41	Z41	X42	Y42	Z42	X43	Y43	Z43	X44	Y44	Z44	X45	Y45	Z45	X46	Y46	Z46	X47	Y47	Z47
																																																																																																																																														
69	0.68	-218.62364	1602.31409	915.73682	-224.03706	1615.10913	1048.04578	-345.75427	1556.73425	918.46295	-346.20178	1568.66479	1048.73096	-372.97366	1396.6051	987.64368	-399.96982	1085.21423	1001.33313	-249.37057	1324.95496	989.26471	-200.47656	1160.83728	990.87598	-414.48865	1222.58997	1094.20325	-299.59644	1355.86401	832.1709	-339.59286	1160.54382	762.23926	-359.48141	1039.58765	748.26221	-374.68137	909.797	740.15161	-401.09576	789.83539	762.1347	-415.06628	806.52411	708.94763	-457.79865	727.67633	718.25049	-292.72052	1355.48145	1148.47974	-266.1824	1139.09912	1230.41626	-228.85846	1035.37122	1246.56152	-155.75751	921.22247	1242.83862	-82.46338	858.87878	1206.62952	-111.38802	832.03656	1242.09644	-50.22851	797.8562	1242.23096	-230.41559	930.04144	888.08954	-239.82993	915.77881	1121.17029	-396.05676	947.09778	930.16974	-397.78925	950.10284	1080.60242	-218.46997	636.40027	831.60376	-153.56143	474.55237	873.50708	-175.40804	273.57495	870.02643	-173.7261	64.98171	910.71112	-212.90237	30.91677	947.50012	-21.49555	31.26352	931.72235	-330.86127	623.93976	1174.12939	-346.77902	443.75342	1155.36646	-498.17093	319.14758	1163.35474	-655.86139	169.56972	1125.91162	-703.19061	189.62651	1075.86511	-618.20886	31.37356	1086.41016	-304.20773	1665.198	957.39734	NaN	NaN	NaN	NaN	NaN	NaN	NaN	NaN	NaN	NaN	NaN	NaN	NaN	NaN	NaN	NaN	NaN	NaN	NaN	NaN	NaN
70	0.69	-205.34416	1603.01868	914.58337	-210.94759	1615.86243	1046.88953	-332.52341	1557.72302	917.10315	-333.28827	1569.91321	1047.38831	-360.56583	1397.05286	986.18372	-386.78775	1086.01782	1000.06921	-236.53893	1325.96448	988.2066	-187.15416	1162.0271	989.96765	-401.75439	1223.57483	1093.26807	-286.50165	1356.71277	831.04327	-324.9957	1161.21277	760.89136	-343.61258	1039.8252	747.20978	-357.14807	909.91986	739.50531	-382.33572	789.6214	762.00354	-396.15457	806.04486	708.48724	-436.84476	726.33301	717.49695	-280.18213	1356.47241	1147.20618	-254.54594	1139.60144	1228.30334	-219.03741	1035.1676	1244.04956	-148.5437	919.35321	1240.71692	-76.47285	855.2146	1204.6189	-106.17024	829.22388	1240.15417	-46.32671	793.17505	1240.58423	-217.29195	931.66925	886.90314	-226.83011	916.73828	1119.9491	-382.80502	948.54749	929.06598	-384.99734	950.41998	1079.50085	-207.29276	636.70258	830.52417	-145.61697	473.569	871.93524	-171.22148	273.3176	869.25677	-173.53952	65.0406	910.883	-212.978	30.95629	947.49969	-21.3237	30.99663	931.77295	-312.11078	622.18237	1172.79712	-323.27985	441.931	1153.8595	-475.29474	320.09616	1162.23743	-636.83374	175.27551	1126.20459	-682.84912	200.54817	1076.73303	-610.59546	36.39134	1086.31824	NaN	NaN	NaN	NaN	NaN	NaN	NaN	NaN	NaN	NaN	NaN	NaN	NaN	NaN	NaN	NaN	NaN	NaN	NaN	NaN	NaN	NaN	NaN	NaN
71	0.7	-192.15765	1603.63684	913.56256	-197.90395	1616.73755	1045.84045	-319.62625	1559.08875	915.97028	-320.42761	1571.38257	1046.13989	-348.25467	1397.73999	984.8114	-373.79712	1086.93115	998.58154	-223.86447	1327.14636	987.29761	-174.20894	1163.34424	989.25055	-389.32349	1224.60815	1092.14124	-273.48611	1357.64319	829.98932	-310.16977	1161.6355	759.81207	-327.40207	1040.09033	746.24652	-339.21021	910.01038	739.05249	-362.76724	789.62854	761.59491	-376.57285	805.50684	708.19739	-414.74246	724.74976	716.82971	-268.00281	1357.39331	1146.14636	-242.96201	1140.05823	1226.34338	-209.23322	1034.9646	1241.81665	-141.56598	917.43536	1238.75342	-70.95065	851.28351	1202.78125	-101.35254	826.26447	1238.46204	-42.92284	788.07257	1238.76831	-204.31238	933.13757	885.86609	-214.54657	917.797	1118.82312	-369.69406	949.85883	927.81506	-372.63486	950.75531	1078.07349	-197.34758	637.35516	829.53461	-138.53339	472.57071	870.6441	-167.96001	273.24948	868.44086	-173.20091	65.06642	910.99493	-213.01384	31.06157	947.50562	-21.24294	30.75416	931.83655	-293.68182	620.69873	1171.01917	-299.0864	440.27689	1152.15002	-450.70676	320.16391	1161.45117	-617.69049	182.19666	1125.71899	-662.86871	210.25558	1076.51965	-597.90753	42.9561	1087.54614	-277.50214	1667.65002	954.59198	NaN	NaN	NaN	NaN	NaN	NaN	NaN	NaN	NaN	NaN	NaN	NaN	NaN	NaN	NaN	NaN	NaN	NaN	NaN	NaN	NaN
72	0.71	-178.86354	1604.3186	912.75946	-184.87712	1617.73999	1044.90479	-306.70538	1560.5415	914.90613	-307.67743	1573.09705	1045.05701	-335.87845	1398.76782	983.59442	-361.07578	1088.00391	997.09308	-211.4328	1328.45801	986.59418	-161.41486	1164.73328	988.64117	-377.24054	1225.58313	1090.7312	-260.5769	1358.63037	828.99683	-295.03384	1162.11963	758.73767	-311.08789	1040.36646	745.44836	-320.80151	910.0769	738.71771	-342.55627	789.57233	761.586	-356.32913	804.94415	708.06714	-391.39786	723.19366	716.3645	-256.10938	1358.38623	1145.35767	-231.56137	1140.5177	1224.54907	-199.51056	1034.70996	1239.8363	-134.77377	915.46918	1237.02222	-65.8488	847.16772	1201.07629	-96.82133	823.33118	1237.05432	-39.90936	782.69135	1236.68518	-191.31184	934.43445	885.05328	-202.58105	918.86847	1118.52368	-356.88147	951.3559	926.48181	-360.64081	951.04572	1076.49939	-188.44493	638.0752	828.67474	-131.77596	471.92062	869.6084	-164.9655	273.26404	867.70544	-173.02184	65.17263	911.01532	-213.02002	31.21478	947.5127	-21.02753	30.58827	931.95605	-275.61105	619.83167	1168.96582	-274.44147	439.18256	1150.22375	-425.59586	320.24261	1160.95239	-597.93542	189.7061	1124.19226	-642.8844	218.0246	1073.87195	-580.27356	49.71432	1089.95947	-264.23483	1668.83301	952.6449	NaN	NaN	NaN	NaN	NaN	NaN	NaN	NaN	NaN	NaN	NaN	NaN	NaN	NaN	NaN	NaN	NaN	NaN	NaN	NaN	NaN
73	0.72	-165.91202	1605.30457	911.94543	-171.99129	1618.83264	1044.13123	-293.92963	1562.09216	913.95068	-295.02686	1574.8374	1044.09277	-323.45703	1400.15283	982.50293	-348.47357	1089.17444	995.71558	-199.14859	1329.83545	986.03888	-148.88615	1166.14148	988.18744	-365.46268	1226.48962	1089.099	-247.67767	1359.73608	828.14795	-279.73917	1162.7063	757.91492	-294.18158	1040.72192	744.70258	-301.83551	910.32098	738.57068	-321.81018	789.63629	761.70721	-335.5452	804.47412	708.14355	-367.03613	721.70801	716.06543	-244.4182	1359.28906	1144.76135	-220.4254	1140.9425	1222.97668	-189.91338	1034.41309	1238.09412	-128.16734	913.49872	1235.47473	-61.1605	842.98846	1199.45544	-92.63985	820.32758	1235.89563	-37.4874	776.90393	1234.72778	-178.19885	935.67743	884.27417	-191.00768	919.94659	1118.30432	-344.03119	952.72498	925.00031	-348.81763	951.42206	1074.93018	-179.992	638.55487	827.91766	-125.6862	471.45651	868.97839	-161.95288	273.25571	867.15338	-172.80882	65.34506	911.03052	-213.03192	31.33979	947.58087	-20.91389	30.36722	932.11078	-257.88181	619.71375	1166.90869	-249.26065	438.92148	1148.52722	-400.59619	321.7851	1159.18982	-577.16846	197.60681	1121.98462	-622.17902	224.06758	1070.27075	-558.53784	56.45848	1092.55457	-250.59346	1670.31445	952.25311	NaN	NaN	NaN	NaN	NaN	NaN	NaN	NaN	NaN	NaN	NaN	NaN	NaN	NaN	NaN	NaN	NaN	NaN	NaN	NaN	NaN
